<?xml version="1.0" encoding="UTF-8" standalone="no"?><!DOCTYPE svg PUBLIC "-//W3C//DTD SVG 1.1//EN" "http://www.w3.org/Graphics/SVG/1.1/DTD/svg11.dtd"><svg width="100%" height="100%" viewBox="0 0 164 132" version="1.1" xmlns="http://www.w3.org/2000/svg" xmlns:xlink="http://www.w3.org/1999/xlink" xml:space="preserve" xmlns:serif="http://www.serif.com/" style="fill-rule:evenodd;clip-rule:evenodd;stroke-linecap:square;stroke-miterlimit:1.5;"><path d="M90.654,72.202l0,0.152l-14.094,0m12.487,-15.223l1.607,0l0,13.196m-16.479,2.027l-1.183,0l-0,-11.84m-0,-1.953l-0,-1.43l13.565,0" style="fill:none;stroke:#7aff4f;stroke-width:1.13px;"/><path d="M76.595,69.249l7.306,-0m-7.306,-9.012l0.056,6.734m10.4,2.278l-0,-6.196m-0,-2.816l-7.076,-0.044" style="fill:none;stroke:#7aff4f;stroke-width:1.13px;"/><path id="Curves" d="M45.665,65.774l-0.393,0.297l27.061,22.88m15.31,-49.993l-3.075,-2.6l-34.063,25.756m26.31,30.624l2.264,1.914l30.565,-23.111m5.04,-3.811l3.69,-2.79l-25.964,-21.951m-14.234,61.247l-35.847,-30.307m83.976,-12.63l4.087,3.455l-45.262,34.224m-48.868,-30.178l-3.008,-2.543l40.615,-30.71m6.698,-5.065l4.903,-3.707l34.501,29.169m-41.795,48.292l4.684,3.96m-16.823,12.618l-65.021,-54.972l85.734,-64.826l12.392,10.564m8.645,7.222l54.843,46.367l-85.734,64.825l-6.901,-5.834m-45.137,-56.282l41.591,35.163m32.244,-73.807l-10.829,-9.127l-55.29,41.18m41.206,47.952l3.636,3.074l49.084,-37.115m8.622,-6.519l5.399,-4.082l-41.696,-35.251m-6.438,-12.577l43.905,37.119m-115.817,17.419l-5.636,-4.765l71.479,-54.048m58.677,48.752l3.812,3.223l-56.217,42.35m-4.103,3.26l-11.694,8.842l-47.582,-40.229m-8.736,-7.385l8.736,7.385m115.724,-17.414l-4.342,3.26m-10.155,0.181l4.684,3.96m-35.98,-57.099l-11.278,8.527m-17.869,104.053l6.798,-5.239m-3.013,-9.682l-4.454,3.368m-26.997,-38.678l-6.067,-5.129m37.607,-33.253l5.558,4.698m35.257,27.485l5.558,4.699m-5.558,-4.699l-5.04,3.811m-28.043,-26.563l-0.266,-0.224l-20.374,15.406m44.595,8.791l2.322,-1.756l-23.008,-19.452m-27.358,15.024l-1.709,1.293l20.646,17.455m2.692,2.277l3.205,2.709l19.725,-14.902m-29.738,17.352l6.808,-5.159m22.93,-12.193l3.539,2.992" style="fill:none;stroke:#7aff4f;stroke-width:1.13px;"/></svg>