<?xml version="1.0" encoding="UTF-8" standalone="no"?><!DOCTYPE svg PUBLIC "-//W3C//DTD SVG 1.1//EN" "http://www.w3.org/Graphics/SVG/1.1/DTD/svg11.dtd"><svg  viewBox="0 0 482 364" version="1.1" xmlns="http://www.w3.org/2000/svg" xmlns:xlink="http://www.w3.org/1999/xlink" xml:space="preserve" xmlns:serif="http://www.serif.com/" style="fill-rule:evenodd;clip-rule:evenodd;stroke-linecap:square;stroke-miterlimit:1.5;"><rect id="Dead-zone" serif:id="Dead zone" x="0" y="0" width="482" height="363.764" style="fill:#300c01;"/><rect id="Pathway" x="36.197" y="30.003" width="407.225" height="333.761" style="fill:#fff;"/><rect id="start" x="214.585" y="341.709" width="50.449" height="22.055" style="fill:#05ff35;"/><rect id="finish" x="417.805" y="10.371" width="25.617" height="19.632" style="fill:#000080;"/><path id="Maze" d="M219.838,190.27l-22.953,0l0,-54.089l26.09,0m19.638,0l26.936,0.361l-0,53.728l-29.458,0m25.888,15.553l-89.036,0l-0,-47.777m-0.053,-14.569l0.053,-21.432l112.548,0l0,83.778l-3.432,0m-109.116,-19.514l19.942,-0.06m72.664,-49.707l19.942,0m-132.49,49.587l-0,-78.928l123.984,-0m-116.979,113.466l-7.005,0l-0,-20.248m152.432,-7.145l0,27.393l-125.519,0m117.29,-113.466l8.229,-0l0,71.783m-152.408,7.265l19.186,-0m113.28,-64.204l19.942,0m-42.702,83.778l-0,14.844m-149.614,14.845l19.942,-0m-19.942,-16.341l-0,-141.659l83.805,-0m20.109,-0l68.043,-0m-149.352,172.844l-22.605,0l-0,-14.844m177.04,14.844l-134.526,0m189.686,-80.664l0,80.664l-35.251,0m-5.083,-172.844l40.334,-0l0,77.687m-128.286,-77.687l-0,14.844m108.344,143.156l19.942,-0m-122.673,-0.012l-0,14.856m-19.418,-14.844l-70.167,-0l-0,-87.699m192.316,22.071l0,65.628l-102.592,-0m26.794,-143.156l75.798,0l0,62.843m-192.316,-21.844l-0,-40.999l96.158,0m-96.158,41.025l19.942,-0m-19.942,66.1l19.942,-0m152.432,-29.622l19.942,0.025m-75.798,-77.528l-0,14.612m-46.351,113.688l-0,14.856m142.091,-158l19.958,-0m-0,167.625l-0,20.075l-89.486,0m89.486,-121.594l-0,87.23m-109.394,34.364l-162.722,0l0,-74.519m0,-13.29l0,-65.758m260.668,-48.989l11.448,0l-0,66.673m-272.116,-31.973l0,-34.7l240.759,0m-240.759,128.012l19.958,-0m103.914,-128.012l-0,14.856m73.654,172.844l-0,14.856m-203.334,32.654l-38.058,-0l0,-27.287m331.614,27.287l-273.205,-0m301.441,-248.348c-0.706,84.916 -0.008,165.59 -0,248.348l-8.327,-0m-351.523,-41.98l0,-206.368m0,-14.29l0,-5.225m359.85,19.515l30.28,0.01m-30.28,-0.01l-19.957,-0m-338.9,148.508l18.965,0m183.494,84.984l-0,14.856m-137.913,-14.676l-0,14.676m250.443,-168.537l23.911,-0m-319.799,6.702l23.772,0m-23.908,-106.028l-0,14.855m45.691,-14.855l0,14.855m-45.691,91.176l-0,-91.176l25.719,0m294.216,76.895l-0,161.257l-135.68,-0m-138.561,-0l-45.694,-0l-0,-132.686m45.694,-105.466l145.915,0m19.909,0l108.417,0l-0,62.606m-155.589,175.546l-98.749,-0m145.729,-238.152l-0,17.798m-146.082,203.49l-0,16.864m141.401,-16.864l-0,16.864" style="fill:none;stroke:#300c01;stroke-width:1.67px;"/></svg>