<?xml version="1.0" encoding="UTF-8" standalone="no"?><!DOCTYPE svg PUBLIC "-//W3C//DTD SVG 1.1//EN" "http://www.w3.org/Graphics/SVG/1.1/DTD/svg11.dtd"><svg  viewBox="0 0 482 364" version="1.1" xmlns="http://www.w3.org/2000/svg" xmlns:xlink="http://www.w3.org/1999/xlink" xml:space="preserve" xmlns:serif="http://www.serif.com/" style="fill-rule:evenodd;clip-rule:evenodd;stroke-linecap:round;stroke-linejoin:round;stroke-miterlimit:1.5;"><g id="lvl-5" serif:id="lvl 5"><rect id="Dead-zone" serif:id="Dead zone" x="0" y="0" width="482" height="363.764" style="fill:#300c01;"/><path d="M11.482,350.349l459.036,-0l0,-341.809l-459.036,-0l-0,341.809Z" style="fill:#fff;stroke:#300c01;stroke-width:3.35px;"/><path id="Maze" d="M356.094,250.332l23.92,-0m-108.329,35.34l108.329,-0l-0,-66.859m0.152,-17.066l-0.335,-142.882m-23.737,17.265l-255.488,0.046m0.062,18.004l-0.062,191.492l144.314,-0m-35.898,-191.492l0,-18.024m-108.354,18.024l24.155,0.109m84.199,-0.109l-84.199,0.109l0,55.232m0,16.841l-0.038,119.31m26.086,-18.051l205.223,-0.037m-0,-17.252l-0,-156.152l-120.188,0m120.188,0l0.029,-18.05m-24.018,79.888l23.989,-0m-23.989,23.426l23.989,0m-205.223,106.228l0,-18.051m84.999,-54.176l-38.816,-0l-0,-20.768m-0.642,-13.233l0,-49.137m27.072,18.05l84.431,0.014m-24.072,17.333l0,47.741l-47.973,-0m-62.894,-5.386l24.078,-0m-24.085,-28.615l23.443,0m39.284,-49.137l-62.708,-0l0,32.286m-0.003,16.851l-0.016,52.042m26.457,0.009l132.562,-0.022m-24.073,-17.216l0,-83.95l-72.219,-0m36.157,-18.051l60.109,0l-0,43.805m-0,16.935l0.026,76.538m-26.484,0.011l-156.607,-0.029m0,-0l0,-137.26l96.106,0m26.85,18.051l0,-18.051m-72.427,137.269l0,-18.03m9.596,71.491l-131.348,-0l0,-77.908m0,-16.251l-0.046,-149.99m22.978,-0.021l302.65,0.053m0,17.184l0,226.933l-167.264,-0m-26.97,-0l0,-17.314m26.97,17.314l0,-17.314m-135.386,-209.496l-0,-17.36m103.88,-18.076l-150.911,0l-0,89.344m-0,16.897l-0.053,174.057m26.855,0.024l346.986,-0.061m-0.098,-17.174l0.098,-263.087l-196.151,0m-26.726,0l0.103,18.076m223.825,279.563l-0,-17.313m-374.839,-190.982l24.053,0.031m325.628,-54.062l24.107,-0m-218.341,244.898l0,-17.965m25.105,-135.317l-13.39,0l0,8.714m40.506,1.301l-0,-10.015l-12.406,0m-28.1,18l0,8.464l13.39,-0m14.339,-0l12.777,-0l0.02,-8.511m-12.426,-17.953l1.607,0m-6.216,7.216l-4.469,-3.12l-4.168,2.909m12.899,9.872l4.79,-3.344l-4.141,-2.89m-17.989,-0.538l-4.048,2.825l4.469,3.12m4.787,3.341l4.265,2.976l4.077,-2.836m4.439,-8.888l0.536,0.375" style="fill:none;stroke:#300c01;stroke-width:1.67px;stroke-linecap:square;stroke-linejoin:miter;"/><rect id="finish" x="235.591" y="177.802" width="9.712" height="5.919" style="fill:#000080;"/><rect id="start" x="12.482" y="343.452" width="22.46" height="16.519" style="fill:#05ff35;"/></g></svg>