<?xml version="1.0" encoding="UTF-8" standalone="no"?><!DOCTYPE svg PUBLIC "-//W3C//DTD SVG 1.1//EN" "http://www.w3.org/Graphics/SVG/1.1/DTD/svg11.dtd"><svg  viewBox="0 0 480 362" version="1.1" xmlns="http://www.w3.org/2000/svg" xmlns:xlink="http://www.w3.org/1999/xlink" xml:space="preserve" xmlns:serif="http://www.serif.com/" style="fill-rule:evenodd;clip-rule:evenodd;stroke-linecap:square;stroke-linejoin:round;stroke-miterlimit:1.5;"><rect id="Mazes" x="0" y="0" width="480" height="362" style="fill:none;"/><clipPath id="_clip1"><rect x="0" y="0" width="480" height="362"/></clipPath><g clip-path="url(#_clip1)"><g id="lvl-4" serif:id="lvl 4"><rect id="Dead-zone" serif:id="Dead zone" x="-0" y="-1.764" width="482" height="363.764" style="fill:#300c01;"/><rect x="0" y="10.47" width="466.258" height="347.804" style="fill:#fff;"/><path id="Maze" d="M192.916,130.476l0,-4.113l3.431,0m-3.431,54.49l0,-36.086m13.724,50.279l-13.724,-0l0,-14.193m65.383,14.193l-31.008,-0m55.629,-21.473l0,21.473l-24.621,-0m-20.422,-68.683l20.746,0m-41.625,0l20.879,0m20.746,0l24.297,0l0,9.717m0,15.854l0,7.119m-110.892,-43.284l0,-4.352l3.35,0m17.538,0l66.39,0m20.054,0l24.911,0l-0,11.487m-0,14.549l-0,36.289m-0.059,10.283l0.059,25.485l-24.749,0m-21.127,0l-51.944,0m-20.634,0l-13.789,0l0,-14.534m0,-14.156l0,-50.558m20.888,28.986l-44.335,-0m177.552,24.777l-43.213,-0m-134.323,-82.698l-0,-4.401m58.196,-0l83.121,-0m-141.317,-0l39.281,-0m122.898,-0l16.926,-0l0,11.781m0,57.536l0,43.501m0,14.324l0,5.713l-16.981,-0m-20.959,-0l-104.062,-0m0,-0l-37.103,-0m-0,-20.15l-0,-36.176m-0.016,-14.207l0.016,-43.428m179.105,7.369l0,28.659m-152.219,-54.922l0.006,-14.491m-26.892,141.38l-23.436,-0.045m102.361,26.274l0,-20.263m83.208,20.27l-0.009,-20.27m-185.556,-99.394c-0.13,-14.512 0,-47.952 0,-47.952l29.209,-0m21.115,-0l166.391,-0m-0,-0l9.254,-0l0,4.416m0,14.395l0,64.952m-30.116,83.853l-72.828,-0m-20.668,-0.007l-102.357,0.007l0,-11.616m-0.004,-14.62l0.004,-79.209m225.969,36.957l0,68.488l-9.381,-0m-215.908,20.301l-0,-20.301m-0.712,-167.616l-0,-14.491m40.015,202.408l-0,-20.301m209.389,-69.71l-46.864,0m46.864,-97.906l-23.432,-0m-249.401,13.807l0,-28.298m0,132.758l0,-89.436m41.916,159.055l-41.916,0l0,-53.282m239.868,53.282l-176.418,0m209.383,-118.7l-0,118.7l-11.826,0m11.826,-187.886l-0,54.785m-74.452,-69.276l74.452,-0m-249.404,-0l154.209,-0m-177.349,222.661l0,-20.253m63.184,20.253l-0,-20.253m209.572,-187.824l23.259,-0.077m-319.724,-0.938l-0,-28.074l84.483,-0m24.978,-0l185.249,-0m20.988,-0l4.033,-0l-0.007,29.012m-0,-0l-0,208.154m0.007,0l-87.296,0m-20.92,0l-166.395,0m-21.411,0l-23.709,0l-0,-59.233m-0,0l-0,-79.346m-0,-14.571l-0,-40.462m-0,119.787l-28.092,-0m-0,-151.641c-0,-6.399 -0,-0.019 -0,15.525m112.621,-42.285c-0,-5.705 -0,1.201 -0,15.06m54.029,263.784l-114.299,0m270.701,0l-135.395,0m188.261,0l-33.015,0m33.015,-120.711l0,107.041m0,-231.5l0,108.378m0,-114.761l0,6.383m-52.85,-33.674l52.85,0l0,12.37m-219.391,-12.37l145.797,0m-281.47,0l114.929,0m-103.673,278.844l-32.11,0l-0,-71.395m-0,-14.744l-0,-50.166m-0,-14.292l-0,-85.962m-0,-15.525l-0,-26.76m156.527,0l-0,15.06m104,237.166l-0,26.618m138.539,-120.958l-23.148,0m-148.867,-113.707l-23.148,0m-227.655,98.36l-26.44,0.074m148.581,-65.993l0,-13.681m-23.42,41.124l0,-13.279m-74.969,51.755l-23.752,0m422.818,-115.28l-23.148,0m-55.195,204.705l-43.213,-0m55.595,-246.736l-0,14.772m-9.987,278.844l-0.006,20.016m-187.31,-313.632l0,14.772m-135.802,278.844c-0,-10.279 -0,-4.954 -0,20.016m-23.752,-286.111l0,-27.521l3,0m-0,0l20.99,0m0,0l197.548,0m20.744,0l93.839,0m-336.121,157.311l0,-115.664m0,245.501l0,-115.35m65.719,141.834l-65.719,0l0,-11.959m138.686,11.959l-52.2,0m218.026,0l-145.192,0m166.677,0l-325.997,0l0.165,21.035m422.653,-199.029l0,37.02m0,-116.614l0,35.829m-65.953,-91.873l65.953,0l0,42.031m0,230.702l0,40.899l-96.821,0m96.821,-55.288l0,14.389m0,-87.43l0,73.041m0,-137.365l0,14.659m0,-29.193l0,14.534" style="fill:none;stroke:#300c01;stroke-width:3.51px;"/><rect id="finish" x="0" y="343.497" width="24.659" height="14.777" style="fill:#000080;"/><rect id="start" x="27.75" y="338.639" width="25.779" height="19.635" style="fill:#05ff35;"/></g></g></svg>