<?xml version="1.0" encoding="UTF-8" standalone="no"?>
<!DOCTYPE svg PUBLIC "-//W3C//DTD SVG 1.1//EN" "http://www.w3.org/Graphics/SVG/1.1/DTD/svg11.dtd">
<svg  viewBox="0 0 57 71" version="1.1" xmlns="http://www.w3.org/2000/svg" xmlns:xlink="http://www.w3.org/1999/xlink" xml:space="preserve" xmlns:serif="http://www.serif.com/" style="fill-rule:evenodd;clip-rule:evenodd;stroke-linecap:square;stroke-miterlimit:1.5;">
    <g transform="matrix(1,0,0,1,-135.899,-119.704)">
        <g transform="matrix(0.74364,0,0,0.74364,0,0)">
            <g id="Foe" transform="matrix(0.533395,0.00410877,-0.00410877,0.533395,130.73,52.1137)">
                <path d="M105.651,283.988C103.533,281.518 99.827,275.693 99.827,266.163C99.827,256.456 105.298,215.333 106.887,205.626C107.063,204.92 107.416,204.214 108.122,203.861C108.651,203.508 109.357,203.332 110.063,203.685C116.77,205.626 133.537,219.922 134.066,219.922C142.008,218.686 175.189,218.333 183.131,219.922C183.484,219.922 200.251,205.626 206.957,203.685C207.663,203.332 208.369,203.508 209.075,203.861C209.605,204.214 210.134,204.92 210.134,205.626C211.899,215.333 217.37,256.456 217.37,266.163C217.37,275.693 213.664,281.518 211.37,283.988C209.958,285.93 208.016,287.695 205.722,288.754C203.428,289.813 201.133,290.519 199.015,291.048C196.544,291.578 194.073,291.931 191.956,291.754C191.25,291.754 190.544,292.284 190.367,293.166C190.367,294.048 191.073,294.754 191.779,294.754C194.073,294.931 196.897,294.578 199.721,293.872C202.016,293.343 207.487,291.048 207.84,290.872C209.781,291.754 215.429,315.757 213.311,334.289C213.311,334.642 213.488,334.995 213.841,335.171C214.194,335.171 214.547,335.171 214.723,334.818C215.429,333.583 215.958,331.994 215.958,329.876C215.958,328.994 216.135,327.935 216.135,326.876C216.135,326.699 216.135,326.523 216.311,326.523C216.488,326.346 216.664,326.346 216.841,326.346C218.959,326.523 221.077,326.876 223.018,327.052C229.019,327.758 234.137,330.406 237.843,334.642C241.02,338.171 242.432,345.408 242.432,350.526C242.432,353.526 239.961,355.821 236.961,355.821C234.137,355.821 231.843,353.526 231.666,350.526C231.49,348.584 231.49,347.173 229.372,345.055C227.607,343.29 224.783,343.819 223.018,343.996C220.724,344.172 214.9,344.878 210.84,345.408C209.958,347.526 208.899,349.467 207.663,351.055C207.84,351.938 209.781,366.41 190.014,366.41C187.367,366.41 184.719,366.94 182.601,365.351C181.896,373.47 191.073,380 169.012,380C157.363,380 160.011,374.529 162.305,367.116C161.069,367.293 159.834,367.293 158.599,367.293C157.187,367.293 155.951,367.293 154.716,367.116C157.01,374.529 159.658,380 148.009,380C126.124,380 135.125,373.47 134.419,365.351C132.301,366.94 129.83,366.41 127.007,366.41C107.416,366.41 109.357,351.938 109.357,351.055C97.179,336.23 106.71,292.107 109.357,290.872C109.534,291.048 115.005,293.343 117.476,293.872C120.3,294.578 122.947,294.931 125.242,294.754C126.124,294.754 126.654,294.048 126.654,293.166C126.654,292.284 125.948,291.754 125.065,291.754C122.947,291.931 120.653,291.578 118.182,291.048C115.888,290.519 113.593,289.813 111.299,288.754C109.004,287.695 107.063,285.93 105.651,283.988ZM133.537,254.338C129.477,257.515 124.183,258.927 121.535,258.927C120.123,258.927 120.123,260.868 121.888,261.221C123.653,261.574 134.066,256.985 134.772,256.456C136.184,255.22 134.772,253.455 133.537,254.338ZM161.246,262.809C162.481,262.103 163.717,261.045 163.717,260.162C163.717,258.044 160.364,257.691 158.599,257.691C156.657,257.691 153.304,258.044 153.304,260.162C153.304,261.045 154.539,262.103 155.775,262.809C155.951,262.809 156.128,263.162 156.128,263.339C156.304,263.692 151.892,267.045 148.892,267.045C144.303,267.045 143.773,263.515 140.949,263.162C140.42,262.986 139.89,263.162 139.714,263.692C139.537,264.221 139.537,264.751 140.067,265.104C142.714,266.869 146.068,269.34 148.892,269.34C152.245,269.34 157.187,264.574 158.599,264.574C160.011,264.574 164.776,269.34 168.306,269.34C171.13,269.34 174.306,266.869 177.13,265.104C177.483,264.751 177.66,264.221 177.483,263.692C177.13,263.162 176.601,262.986 176.071,263.162C173.247,263.515 172.894,267.045 168.306,267.045C165.305,267.045 160.893,263.692 160.893,263.339C160.893,263.162 161.069,262.809 161.246,262.809ZM195.132,261.221C197.956,253.102 185.778,248.867 182.249,256.456C181.896,257.515 183.307,258.75 184.366,257.691C187.19,254.691 193.368,257.338 192.838,260.868C192.662,262.28 194.603,262.633 195.132,261.221ZM195.485,232.276C197.074,234.924 201.486,240.924 206.604,240.924C211.37,240.924 207.487,210.568 206.251,209.862C205.016,209.156 194.25,230.158 195.485,232.276ZM121.535,232.276C122.947,230.158 112.005,209.156 110.769,209.862C109.534,210.568 105.828,240.924 110.416,240.924C115.711,240.924 120.123,234.924 121.535,232.276ZM158.599,274.105C157.187,274.105 156.834,269.869 156.657,269.869C156.481,269.693 151.362,270.752 151.009,271.105C150.656,271.634 151.009,279.576 158.599,279.576C166.011,279.576 166.364,271.634 166.011,271.105C165.835,270.752 160.54,269.693 160.364,269.869C160.187,269.869 159.834,274.105 158.599,274.105Z" style="fill:rgb(255,0,0);stroke:rgb(48,12,1);stroke-width:0.28px;"/>
            </g>
        </g>
    </g>
</svg>
